<svg version="1.1" id="Layer_1" xmlns="http://www.w3.org/2000/svg" xmlns:xlink="http://www.w3.org/1999/xlink" x="0px" y="0px"
	 width="100%" viewBox="0 0 241 241" enable-background="new 0 0 241 241" xml:space="preserve">
<path fill="#010101" opacity="1.000000" stroke="none" 
	d="
M242.000000,94.000000 
	C242.000000,143.666672 242.000000,192.833328 242.000000,242.000000 
	C161.666672,242.000000 81.333336,242.000000 1.000000,242.000000 
	C1.000000,161.666672 1.000000,81.333336 1.000000,1.000000 
	C81.333336,1.000000 161.666672,1.000000 242.000000,1.000000 
	C242.000000,31.833334 242.000000,62.666668 242.000000,94.000000 
M157.980530,215.042374 
	C157.980530,215.042374 158.033417,215.029541 158.508469,215.635788 
	C160.474121,215.471603 162.439789,215.307404 164.745804,215.172241 
	C164.745804,215.172241 165.000565,214.944672 165.661453,214.919281 
	C166.650604,213.940674 167.639755,212.962067 169.149933,211.438751 
	C169.761383,211.823959 170.436768,212.136795 170.971313,212.609055 
	C172.177261,213.674500 173.313522,214.818802 174.478165,215.931015 
	C175.323013,214.479050 176.222992,213.055649 176.995392,211.566101 
	C177.620575,210.360458 178.092239,209.075211 179.102783,206.735046 
	C180.124207,209.990005 180.415100,211.994522 181.377335,213.595551 
	C181.994781,214.622925 183.880981,215.849396 184.696274,215.561996 
	C185.810089,215.169357 186.953690,213.510025 187.175385,212.235550 
	C187.566101,209.989334 187.830551,207.427048 187.107559,205.361191 
	C186.333832,203.150406 184.031006,199.519730 182.964798,199.709335 
	C178.658081,200.475296 173.417374,197.610672 169.296478,202.661499 
	C168.245224,202.054276 167.193970,201.447052 166.006760,200.895294 
	C166.006760,200.895294 166.142365,200.856522 165.708633,200.256287 
	C162.406143,198.801926 159.214676,198.692291 155.690262,201.264511 
	C155.472443,201.576813 155.254623,201.889099 154.533463,202.357956 
	C154.228683,202.909149 153.923904,203.460342 153.353836,204.835739 
	C153.442596,206.554062 153.531342,208.272385 153.363312,210.548813 
	C153.917313,211.312653 154.471313,212.076492 155.244156,213.364304 
	C155.552734,213.571274 155.861313,213.778244 156.369965,214.516464 
	C156.898926,214.675430 157.427887,214.834396 157.980530,215.042374 
M104.271034,210.697495 
	C108.261993,216.461746 111.698891,217.292740 119.254822,214.304031 
	C119.591682,207.744827 112.696045,213.700119 111.257889,209.229126 
	C114.310867,209.229126 117.161926,209.229126 120.012985,209.229126 
	C120.396263,208.797455 120.779541,208.365799 121.162819,207.934128 
	C119.521111,205.353424 118.422607,201.822174 116.073334,200.479584 
	C114.033127,199.313644 110.360802,200.062225 107.824425,201.040146 
	C106.160789,201.681595 105.235023,204.236786 103.329842,205.694824 
	C101.445900,200.639481 98.192642,197.891907 92.414040,199.730392 
	C92.260757,198.641098 92.362289,197.873657 92.043282,197.375534 
	C91.097008,195.897949 89.985008,194.526505 88.937805,193.113556 
	C88.019356,194.607986 86.421638,196.053101 86.308945,197.606018 
	C85.961212,202.397552 85.981018,207.243820 86.308548,212.038071 
	C86.399040,213.362625 88.020081,215.633652 89.008980,215.672211 
	C94.672234,215.893021 100.709908,216.488678 104.271034,210.697495 
M48.217842,115.704697 
	C53.562927,123.637512 58.137329,132.251724 64.419060,139.356384 
	C76.242180,152.728394 91.476433,161.699600 107.343040,169.665573 
	C117.522453,174.776260 126.566978,177.609222 138.338745,171.587341 
	C155.621521,162.746262 172.430893,153.534744 186.522934,140.201431 
	C195.839844,131.386139 203.102768,120.780312 207.544037,108.549187 
	C213.347763,92.565872 215.929398,76.380737 210.333939,59.706558 
	C202.980469,37.793541 180.671600,27.998135 159.979095,31.648706 
	C146.776917,33.977837 136.733063,41.039478 128.296005,50.982006 
	C126.479271,53.122906 124.404091,54.076900 122.176369,51.383591 
	C120.505981,49.364090 119.016388,47.149185 117.118546,45.371113 
	C104.431137,33.484402 89.612595,28.152287 72.371399,32.234901 
	C64.163643,34.178455 56.072266,37.556953 50.736118,44.366581 
	C36.092606,63.053627 36.541340,83.691170 44.259659,105.707565 
	C45.498085,108.808441 46.736507,111.909325 48.217842,115.704697 
M54.215988,193.201385 
	C50.576698,194.320770 48.738480,196.516159 49.119942,200.581650 
	C49.507793,204.715302 51.981560,206.099152 55.607368,206.735168 
	C57.495754,207.066422 59.277760,208.004089 61.107815,208.667847 
	C60.952423,209.388550 60.797028,210.109253 60.641632,210.829971 
	C58.080730,210.536270 55.525711,210.120209 52.956627,209.996735 
	C51.514450,209.927414 50.049023,210.341904 48.594070,210.538406 
	C49.394073,211.974915 49.840046,214.021042 51.062122,214.730774 
	C54.395256,216.666473 57.624008,215.804199 61.313885,214.423935 
	C64.466850,213.244522 66.255363,212.438690 66.158463,208.933090 
	C66.056503,205.244766 64.401138,203.127014 60.728199,202.362686 
	C58.664665,201.933273 56.701374,201.022141 54.692921,200.328049 
	C54.803879,199.619171 54.914841,198.910309 55.025799,198.201431 
	C57.172249,198.201431 59.330669,198.337021 61.460533,198.149078 
	C62.681091,198.041367 63.855267,197.408066 65.050323,197.011368 
	C64.204308,195.797867 63.558590,193.811630 62.471092,193.529739 
	C60.117065,192.919540 57.536785,193.182190 54.215988,193.201385 
M197.520279,216.066803 
	C199.756546,215.051727 201.992813,214.036652 204.229065,213.021576 
	C202.941315,212.034958 201.653549,211.048355 200.167679,209.909958 
	C203.631424,209.077621 205.344254,206.960602 204.041550,203.512039 
	C202.579178,199.640762 196.770905,198.094238 193.087357,200.107330 
	C188.924561,202.382385 188.765823,206.122269 189.351151,209.953827 
	C189.960831,213.944778 193.108276,215.399628 197.520279,216.066803 
M139.101349,198.553375 
	C139.480423,200.092758 140.101852,201.618774 140.187653,203.174332 
	C140.361465,206.326370 139.993195,209.525299 140.375259,212.640274 
	C140.523346,213.847321 142.098633,214.879303 143.023743,215.991028 
	C143.799332,214.914185 145.094742,213.904846 145.245132,212.746826 
	C145.585236,210.128082 145.479797,207.429520 145.337006,204.775192 
	C145.121338,200.766327 145.188232,197.258163 150.876266,197.918686 
	C151.563965,197.998566 152.877106,196.418655 153.094757,195.430527 
	C153.226471,194.832535 151.830002,193.238098 151.080002,193.211227 
	C145.597977,193.014862 140.102615,193.011765 134.620453,193.203735 
	C133.851456,193.230667 132.399643,194.853180 132.545715,195.385284 
	C132.822601,196.393982 133.886017,197.458481 134.889236,197.918640 
	C135.865448,198.366364 137.175323,198.086594 139.101349,198.553375 
M73.983162,215.846130 
	C75.746300,215.594925 78.027878,215.941833 79.158966,214.961426 
	C81.184631,213.205612 83.607491,210.756546 83.836166,208.400375 
	C84.068474,206.006699 82.502602,202.559738 80.571442,201.017502 
	C76.532669,197.792099 70.962837,199.209274 68.651421,203.203018 
	C65.756912,208.204224 67.353172,212.472092 73.983162,215.846130 
M127.205467,209.863342 
	C128.572708,207.923904 129.922470,205.971802 131.314758,204.050507 
	C131.982040,203.129684 132.729813,202.267181 133.441116,201.378250 
	C132.435440,200.863297 131.458954,199.973694 130.419449,199.892685 
	C122.152679,199.248398 122.148712,199.295517 122.143951,207.480225 
	C122.143372,208.476776 121.868401,209.582855 122.207245,210.447449 
	C122.947273,212.335693 124.000481,214.101227 124.925735,215.916885 
	C125.685349,214.179581 126.444962,212.442291 127.205467,209.863342 
z"/>
<path fill="#E3F4FA" opacity="1.000000" stroke="none" 
	d="
M44.130299,104.962234 
	C36.541340,83.691170 36.092606,63.053627 50.736118,44.366581 
	C56.072266,37.556953 64.163643,34.178455 72.371399,32.234901 
	C89.612595,28.152287 104.431137,33.484402 117.118546,45.371113 
	C119.016388,47.149185 120.505981,49.364090 122.176369,51.383591 
	C124.404091,54.076900 126.479271,53.122906 128.296005,50.982006 
	C136.733063,41.039478 146.776917,33.977837 159.979095,31.648706 
	C180.671600,27.998135 202.980469,37.793541 210.333939,59.706558 
	C215.929398,76.380737 213.347763,92.565872 207.544037,108.549187 
	C203.102768,120.780312 195.839844,131.386139 186.522934,140.201431 
	C172.430893,153.534744 155.621521,162.746262 138.338745,171.587341 
	C126.566978,177.609222 117.522453,174.776260 107.343040,169.665573 
	C91.476433,161.699600 76.242180,152.728394 64.419060,139.356384 
	C58.137329,132.251724 53.562927,123.637512 48.479980,115.341202 
	C51.660164,113.996674 54.578213,113.015640 57.670624,112.278198 
	C62.540565,119.048943 67.236145,125.576103 72.079788,132.400696 
	C76.114052,136.228134 80.000252,139.758118 84.066879,143.564636 
	C87.802689,146.253510 91.358086,148.665848 94.926315,151.068802 
	C94.939140,151.059402 94.945602,151.043076 95.045181,151.265228 
	C95.359863,151.756012 95.638687,151.906815 96.146027,152.014740 
	C96.310822,152.089676 96.672859,152.093292 96.841667,152.318314 
	C97.333885,152.722595 97.657288,152.901855 98.136742,153.305450 
	C98.795998,153.710815 99.299210,153.891891 100.007050,154.310547 
	C100.779549,154.799942 101.347420,155.051758 102.139847,155.537796 
	C104.132515,156.579712 105.900604,157.387405 107.902328,158.458923 
	C112.071609,160.514801 116.007278,162.306854 119.974426,164.073318 
	C120.005920,164.047729 119.925339,164.057281 120.100800,164.304413 
	C120.847298,164.722458 121.418327,164.893341 121.993896,165.033844 
	C121.998428,165.003448 121.945595,165.034836 122.200584,165.297760 
	C124.101418,165.415588 125.747261,165.270477 127.730804,165.127731 
	C129.476456,164.458923 130.884399,163.787750 132.480804,163.114532 
	C132.669266,163.112488 133.015259,162.962936 133.282501,162.897064 
	C133.820740,162.587296 134.091751,162.343369 134.526260,162.119781 
	C134.689774,162.140121 134.995056,162.015945 135.277313,161.946350 
	C135.847641,161.620987 136.135681,161.365189 136.564163,161.149490 
	C136.704605,161.189590 136.974655,161.078232 137.280334,161.056427 
	C138.076126,160.707672 138.566223,160.380707 139.029175,160.028931 
	C139.002029,160.004120 139.029587,160.072311 139.339523,160.053467 
	C140.165421,159.716934 140.681366,159.399231 141.474075,159.068176 
	C142.204498,158.767929 142.658188,158.481018 143.392365,158.153778 
	C144.148468,157.829620 144.624054,157.545792 145.438660,157.183563 
	C147.536209,156.084198 149.294724,155.063278 151.031998,154.018799 
	C151.010757,153.995255 151.033005,154.054108 151.366028,154.015625 
	C153.152908,153.003204 154.606781,152.029251 156.038544,151.026367 
	C156.016449,150.997437 156.031418,151.068588 156.312958,150.991638 
	C156.874588,150.647491 157.154694,150.380295 157.766205,150.066284 
	C161.816086,147.374817 165.534561,144.730148 169.515640,141.925232 
	C170.921082,140.541153 172.063934,139.317352 173.501373,137.948181 
	C176.580490,134.918335 179.365036,132.033859 182.135834,129.120361 
	C182.122086,129.091324 182.065552,129.120926 182.313004,129.028809 
	C182.692856,128.629181 182.825256,128.321686 183.093262,127.760376 
	C183.828125,127.035469 184.427368,126.564369 185.364441,126.039337 
	C186.274094,125.045837 186.845932,124.106262 187.656769,122.972931 
	C188.683594,121.358818 189.471420,119.938461 190.571136,118.344818 
	C191.352219,117.125862 191.821411,116.080193 192.456909,114.833221 
	C192.826477,114.155052 193.029755,113.678192 193.228683,113.187317 
	C193.224335,113.173294 193.238602,113.154228 193.508911,112.994980 
	C194.221802,111.904800 194.664368,110.973877 195.343536,109.784103 
	C196.128525,107.710770 196.676941,105.896294 197.406067,103.860977 
	C197.692383,103.086327 197.797958,102.532524 198.168533,101.721191 
	C198.677094,99.993752 198.920685,98.523857 199.351532,96.790749 
	C199.643875,95.679153 199.748932,94.830772 200.053223,93.651703 
	C200.420578,91.534927 200.588730,89.748825 200.842133,87.572510 
	C200.951019,86.119476 200.974655,85.056671 201.182602,83.838829 
	C201.271759,83.116570 201.176575,82.549339 201.119232,81.586868 
	C201.130203,80.134415 201.103333,79.077202 201.240692,77.841629 
	C201.244995,77.116066 201.085068,76.568855 200.931671,75.686928 
	C200.836044,74.919327 200.733887,74.486443 200.695953,73.670547 
	C199.600494,70.043213 198.440811,66.798882 197.300049,63.402561 
	C197.318970,63.250568 197.191406,62.972057 197.180023,62.609467 
	C195.790283,60.140266 194.411942,58.033653 192.957123,55.716030 
	C192.735428,55.229549 192.521606,55.026211 192.128525,54.650215 
	C191.721802,54.222576 191.425735,54.039722 191.109726,53.931610 
	C191.089767,54.006351 191.148560,53.859772 191.070282,53.613857 
	C190.705658,53.195755 190.419296,53.023571 190.129486,52.834438 
	C190.126038,52.817490 190.150528,52.793053 190.066605,52.570141 
	C189.793945,52.066425 189.532471,51.899567 189.185181,51.853512 
	C189.172104,51.860374 189.145493,51.873177 189.059479,51.626976 
	C188.679062,51.212486 188.384674,51.044189 188.054382,50.926033 
	C188.018494,50.976177 188.120331,50.906624 188.028854,50.663574 
	C187.645508,50.248951 187.353622,50.077381 187.036041,49.913292 
	C187.010345,49.920773 187.055786,49.949059 186.924042,49.660259 
	C185.895096,48.871811 184.997894,48.372158 184.066528,47.885929 
	C184.032364,47.899353 184.093323,47.940235 184.012573,47.688362 
	C183.628250,47.273609 183.324677,47.110729 183.022263,46.965813 
	C183.023438,46.983776 183.056534,46.955574 182.808777,46.676491 
	C178.842072,45.209614 175.123108,44.021820 171.032379,42.582985 
	C161.055847,41.582108 151.449905,40.825134 142.615005,46.869392 
	C141.500305,47.588703 140.700790,48.242504 139.922668,48.876461 
	C139.944031,48.856621 139.885712,48.854969 139.581604,48.873863 
	C138.482803,49.493515 137.688110,50.094273 136.651505,50.834259 
	C136.245316,51.291813 136.081039,51.610134 135.950348,51.914028 
	C135.983948,51.899601 135.915192,51.874714 135.616608,51.874504 
	C134.887909,52.251419 134.457809,52.628544 133.798508,53.110851 
	C133.382553,53.488930 133.195770,53.761829 132.712006,54.166359 
	C131.503326,55.491898 130.591644,56.685802 129.492767,58.009560 
	C129.087982,58.368668 128.962082,58.640404 128.663147,59.142342 
	C127.571663,60.825947 126.744926,62.321835 125.582115,63.811275 
	C123.269707,61.503479 121.293381,59.202133 119.215302,56.567127 
	C114.783829,52.809109 110.454109,49.384754 105.874039,45.687607 
	C102.827095,44.544521 100.030518,43.674232 96.874252,42.571869 
	C91.204010,42.513222 85.893448,42.686646 80.322540,42.810608 
	C79.715744,42.821762 79.369301,42.882389 78.677002,42.936600 
	C77.509903,43.267799 76.688637,43.605408 75.539078,43.950062 
	C74.066284,44.489819 72.921776,45.022537 71.425919,45.626205 
	C67.002228,49.418854 62.929882,53.140556 58.870762,56.879921 
	C58.883987,56.897579 58.919815,56.921703 58.615620,57.085136 
	C57.390629,59.117584 56.469833,60.986603 55.291824,63.091789 
	C54.672478,64.060883 54.199245,64.760033 53.964691,65.531738 
	C49.714741,79.514420 51.933865,93.198204 55.704933,106.866119 
	C55.490452,106.936775 55.046654,107.020508 54.774117,106.791046 
	C53.316868,105.877892 52.175697,104.727898 50.937939,104.612320 
	C48.699135,104.403282 46.402679,104.811661 44.130299,104.962234 
z"/>
<path fill="#2AC3E9" opacity="1.000000" stroke="none" 
	d="
M165.000565,214.944672 
	C165.000565,214.944672 164.745804,215.172241 164.118011,215.121307 
	C161.671295,215.056778 159.852356,215.043152 158.033417,215.029541 
	C158.033417,215.029541 157.980530,215.042374 157.825348,214.785889 
	C157.170090,214.348007 156.669998,214.166595 156.169907,213.985199 
	C155.861313,213.778244 155.552734,213.571274 155.132538,212.805847 
	C154.553986,211.495163 154.087036,210.742935 153.620102,209.990707 
	C153.531342,208.272385 153.442596,206.554062 153.728241,204.350906 
	C154.414032,203.311188 154.725418,202.756302 155.036804,202.201401 
	C155.254623,201.889099 155.472443,201.576813 156.399292,201.147064 
	C160.119659,200.971909 163.131012,200.914215 166.142365,200.856522 
	C166.142365,200.856522 166.006760,200.895294 166.067657,201.229889 
	C167.737946,203.624222 169.347321,205.683960 170.956711,207.743683 
	C171.332092,207.528992 171.707458,207.314301 172.082825,207.099609 
	C171.397903,205.546494 170.712967,203.993378 170.028046,202.440262 
	C173.417374,197.610672 178.658081,200.475296 182.964798,199.709335 
	C184.031006,199.519730 186.333832,203.150406 187.107559,205.361191 
	C187.830551,207.427048 187.566101,209.989334 187.175385,212.235550 
	C186.953690,213.510025 185.810089,215.169357 184.696274,215.561996 
	C183.880981,215.849396 181.994781,214.622925 181.377335,213.595551 
	C180.415100,211.994522 180.124207,209.990005 179.102783,206.735046 
	C178.092239,209.075211 177.620575,210.360458 176.995392,211.566101 
	C176.222992,213.055649 175.323013,214.479050 174.478149,215.931015 
	C173.313522,214.818802 172.177261,213.674500 170.971313,212.609055 
	C170.436768,212.136795 169.761383,211.823959 168.591156,211.762756 
	C167.021790,213.039398 166.011185,213.992035 165.000565,214.944672 
M162.641647,210.079681 
	C166.390121,207.001938 163.676682,205.583435 161.130081,203.736557 
	C159.285522,205.789658 155.960846,207.167862 160.097107,210.587265 
	C160.798462,210.538681 161.499802,210.490112 162.641647,210.079681 
z"/>
<path fill="#15498B" opacity="1.000000" stroke="none" 
	d="
M54.632515,193.144623 
	C57.536785,193.182190 60.117065,192.919540 62.471092,193.529739 
	C63.558590,193.811630 64.204308,195.797867 65.050323,197.011368 
	C63.855267,197.408066 62.681091,198.041367 61.460533,198.149078 
	C59.330669,198.337021 57.172249,198.201431 55.025799,198.201431 
	C54.914841,198.910309 54.803879,199.619171 54.692921,200.328049 
	C56.701374,201.022141 58.664665,201.933273 60.728199,202.362686 
	C64.401138,203.127014 66.056503,205.244766 66.158463,208.933090 
	C66.255363,212.438690 64.466850,213.244522 61.313885,214.423935 
	C57.624008,215.804199 54.395256,216.666473 51.062122,214.730774 
	C49.840046,214.021042 49.394073,211.974915 48.594070,210.538406 
	C50.049023,210.341904 51.514450,209.927414 52.956627,209.996735 
	C55.525711,210.120209 58.080730,210.536270 60.641632,210.829971 
	C60.797028,210.109253 60.952423,209.388550 61.107815,208.667847 
	C59.277760,208.004089 57.495754,207.066422 55.607368,206.735168 
	C51.981560,206.099152 49.507793,204.715302 49.119942,200.581650 
	C48.738480,196.516159 50.576698,194.320770 54.632515,193.144623 
z"/>
<path fill="#14488A" opacity="1.000000" stroke="none" 
	d="
M103.970627,210.079285 
	C100.709908,216.488678 94.672234,215.893021 89.008980,215.672211 
	C88.020081,215.633652 86.399040,213.362625 86.308548,212.038071 
	C85.981018,207.243820 85.961212,202.397552 86.308945,197.606018 
	C86.421638,196.053101 88.019356,194.607986 88.937805,193.113556 
	C89.985008,194.526505 91.097008,195.897949 92.043282,197.375534 
	C92.362289,197.873657 92.260757,198.641098 92.414040,199.730392 
	C98.192642,197.891907 101.445900,200.639481 103.660774,206.229401 
	C103.984680,207.869064 103.977654,208.974182 103.970627,210.079285 
M96.149963,204.589508 
	C93.260147,203.413437 91.920219,204.830780 92.222343,207.482590 
	C92.366310,208.746140 93.840439,209.858124 94.712044,211.038773 
	C95.523895,209.554123 96.389893,208.094772 97.104668,206.564774 
	C97.258675,206.235107 96.867226,205.650620 96.149963,204.589508 
z"/>
<path fill="#2FBDDE" opacity="1.000000" stroke="none" 
	d="
M197.116837,216.058746 
	C193.108276,215.399628 189.960831,213.944778 189.351151,209.953827 
	C188.765823,206.122269 188.924561,202.382385 193.087357,200.107330 
	C196.770905,198.094238 202.579178,199.640762 204.041550,203.512039 
	C205.344254,206.960602 203.631424,209.077621 200.167679,209.909958 
	C201.653549,211.048355 202.941315,212.034958 204.229065,213.021576 
	C201.992813,214.036652 199.756546,215.051727 197.116837,216.058746 
z"/>
<path fill="#2FBBDF" opacity="1.000000" stroke="none" 
	d="
M138.720032,198.339813 
	C137.175323,198.086594 135.865448,198.366364 134.889236,197.918640 
	C133.886017,197.458481 132.822601,196.393982 132.545715,195.385284 
	C132.399643,194.853180 133.851456,193.230667 134.620453,193.203735 
	C140.102615,193.011765 145.597977,193.014862 151.080002,193.211227 
	C151.830002,193.238098 153.226471,194.832535 153.094757,195.430527 
	C152.877106,196.418655 151.563965,197.998566 150.876266,197.918686 
	C145.188232,197.258163 145.121338,200.766327 145.337006,204.775192 
	C145.479797,207.429520 145.585236,210.128082 145.245132,212.746826 
	C145.094742,213.904846 143.799332,214.914185 143.023743,215.991028 
	C142.098633,214.879303 140.523346,213.847321 140.375259,212.640274 
	C139.993195,209.525299 140.361465,206.326370 140.187653,203.174332 
	C140.101852,201.618774 139.480423,200.092758 138.720032,198.339813 
z"/>
<path fill="#16498B" opacity="1.000000" stroke="none" 
	d="
M104.120834,210.388397 
	C103.977654,208.974182 103.984680,207.869064 103.985245,206.349426 
	C105.235023,204.236786 106.160789,201.681595 107.824425,201.040146 
	C110.360802,200.062225 114.033127,199.313644 116.073334,200.479584 
	C118.422607,201.822174 119.521111,205.353424 121.162819,207.934128 
	C120.779541,208.365799 120.396263,208.797455 120.012985,209.229126 
	C117.161926,209.229126 114.310867,209.229126 111.257889,209.229126 
	C112.696045,213.700119 119.591682,207.744827 119.254822,214.304031 
	C111.698891,217.292740 108.261993,216.461746 104.120834,210.388397 
z"/>
<path fill="#14498D" opacity="1.000000" stroke="none" 
	d="
M73.622223,215.687195 
	C67.353172,212.472092 65.756912,208.204224 68.651421,203.203018 
	C70.962837,199.209274 76.532669,197.792099 80.571442,201.017502 
	C82.502602,202.559738 84.068474,206.006699 83.836166,208.400375 
	C83.607491,210.756546 81.184631,213.205612 79.158966,214.961426 
	C78.027878,215.941833 75.746300,215.594925 73.622223,215.687195 
M79.045212,207.567047 
	C77.722130,206.446533 76.399048,205.326019 75.075951,204.205521 
	C74.424225,205.224442 73.228302,206.260284 73.259323,207.257996 
	C73.297600,208.488846 74.356644,209.687943 74.974586,210.900787 
	C76.277168,210.047913 77.579758,209.195053 79.045212,207.567047 
z"/>
<path fill="#13498B" opacity="1.000000" stroke="none" 
	d="
M127.205017,210.284164 
	C126.444962,212.442291 125.685349,214.179581 124.925735,215.916885 
	C124.000481,214.101227 122.947273,212.335693 122.207245,210.447449 
	C121.868401,209.582855 122.143372,208.476776 122.143951,207.480225 
	C122.148712,199.295517 122.152679,199.248398 130.419449,199.892685 
	C131.458954,199.973694 132.435440,200.863297 133.441116,201.378250 
	C132.729813,202.267181 131.982040,203.129684 131.314758,204.050507 
	C129.922470,205.971802 128.572708,207.923904 127.205017,210.284164 
z"/>
<path fill="#F0F8F9" opacity="1.000000" stroke="none" 
	d="
M57.496262,112.034607 
	C54.578213,113.015640 51.660164,113.996674 48.358521,114.993958 
	C46.736507,111.909325 45.498085,108.808441 44.194977,105.334900 
	C46.402679,104.811661 48.699135,104.403282 50.937939,104.612320 
	C52.175697,104.727898 53.316868,105.877892 54.743504,107.022385 
	C54.985428,107.483170 55.020924,107.948975 55.043884,108.287491 
	C55.782059,109.439964 56.497276,110.253922 57.293739,111.306534 
	C57.415417,111.708328 57.455841,111.871475 57.496262,112.034607 
z"/>
<path fill="#2CBDE2" opacity="1.000000" stroke="none" 
	d="
M169.662262,202.550873 
	C170.712967,203.993378 171.397903,205.546494 172.082825,207.099609 
	C171.707458,207.314301 171.332092,207.528992 170.956711,207.743683 
	C169.347321,205.683960 167.737946,203.624222 166.135635,201.202164 
	C167.193970,201.447052 168.245224,202.054276 169.662262,202.550873 
z"/>
<path fill="#2CBDE2" opacity="1.000000" stroke="none" 
	d="
M165.925507,200.556396 
	C163.131012,200.914215 160.119659,200.971909 156.667175,201.034439 
	C159.214676,198.692291 162.406143,198.801926 165.925507,200.556396 
z"/>
<path fill="#2CBDE2" opacity="1.000000" stroke="none" 
	d="
M165.331009,214.931976 
	C166.011185,213.992035 167.021790,213.039398 168.330658,212.035126 
	C167.639755,212.962067 166.650604,213.940674 165.331009,214.931976 
z"/>
<path fill="#2CBDE2" opacity="1.000000" stroke="none" 
	d="
M158.270935,215.332657 
	C159.852356,215.043152 161.671295,215.056778 163.947845,215.106796 
	C162.439789,215.307404 160.474121,215.471603 158.270935,215.332657 
z"/>
<path fill="#2CBDE2" opacity="1.000000" stroke="none" 
	d="
M153.491699,210.269760 
	C154.087036,210.742935 154.553986,211.495163 155.023117,212.543854 
	C154.471313,212.076492 153.917313,211.312653 153.491699,210.269760 
z"/>
<path fill="#2CBDE2" opacity="1.000000" stroke="none" 
	d="
M154.785126,202.279678 
	C154.725418,202.756302 154.414032,203.311188 153.860901,203.938812 
	C153.923904,203.460342 154.228683,202.909149 154.785126,202.279678 
z"/>
<path fill="#2CBDE2" opacity="1.000000" stroke="none" 
	d="
M156.269928,214.250824 
	C156.669998,214.166595 157.170090,214.348007 157.813507,214.761398 
	C157.427887,214.834396 156.898926,214.675430 156.269928,214.250824 
z"/>
<path fill="#7C9CF2" opacity="1.000000" stroke="none" 
	d="
M106.124390,45.960396 
	C110.454109,49.384754 114.783829,52.809109 118.781059,56.604813 
	C114.733498,57.121368 114.997475,59.811729 114.998367,62.350338 
	C115.002769,74.921539 114.999588,87.492744 115.000183,100.063942 
	C115.000603,108.868141 115.001396,108.868141 123.113007,108.441971 
	C117.788437,116.130074 112.628906,123.514633 107.025261,131.534836 
	C106.487457,129.288742 106.096245,127.654861 105.975647,125.889679 
	C105.740456,123.831841 105.234657,121.905296 104.588821,119.668365 
	C104.389671,118.907990 104.330551,118.458000 104.475800,117.740013 
	C104.478317,114.848373 104.337135,112.218399 104.064209,109.602173 
	C102.846672,97.931328 101.572899,86.266319 100.380997,74.592911 
	C100.271324,73.518745 100.277405,72.222832 100.772018,71.330444 
	C104.389954,64.802834 104.071968,57.922680 102.467880,51.056259 
	C101.641167,47.517517 102.543106,45.969772 106.124390,45.960396 
z"/>
<path fill="#4FC0F6" opacity="1.000000" stroke="none" 
	d="
M182.149582,129.149384 
	C179.365036,132.033859 176.580490,134.918335 173.133026,137.870056 
	C169.214050,135.180099 168.784653,132.315689 170.057922,127.937149 
	C171.639740,122.497551 172.790375,116.405800 168.952972,110.540787 
	C168.789719,109.494041 168.663681,108.901070 168.441757,108.161530 
	C168.233627,107.679100 168.121399,107.343239 167.897095,106.779739 
	C167.527191,106.337662 167.269363,106.123207 167.009140,105.554237 
	C167.337814,104.132736 167.668915,103.065758 168.365295,101.988663 
	C171.729477,101.474762 171.413406,99.912064 170.001373,97.530754 
	C169.668839,79.046394 169.336563,61.030659 169.403915,43.001625 
	C170.337082,42.936890 170.870605,42.885460 171.404144,42.834026 
	C175.123108,44.021820 178.842072,45.209614 182.399567,46.703533 
	C178.818130,47.195595 179.086319,49.685783 178.984940,52.064232 
	C178.249008,69.332123 180.441711,86.649658 178.122803,103.895569 
	C178.027405,104.605057 178.403595,105.842606 178.921021,106.095428 
	C182.642654,107.913849 181.304276,110.320953 180.198196,113.072426 
	C179.420578,115.006767 179.252243,117.241501 179.110901,119.362045 
	C178.935532,121.993004 179.068878,124.644539 179.068878,128.208817 
	C179.505096,128.341995 180.827332,128.745682 182.149582,129.149384 
z"/>
<path fill="#48C3F6" opacity="1.000000" stroke="none" 
	d="
M182.135834,129.120361 
	C180.827332,128.745682 179.505096,128.341995 179.068878,128.208817 
	C179.068878,124.644539 178.935532,121.993004 179.110901,119.362045 
	C179.252243,117.241501 179.420578,115.006767 180.198196,113.072426 
	C181.304276,110.320953 182.642654,107.913849 178.921021,106.095428 
	C178.403595,105.842606 178.027405,104.605057 178.122803,103.895569 
	C180.441711,86.649658 178.249008,69.332123 178.984940,52.064232 
	C179.086319,49.685783 178.818130,47.195595 182.647308,46.982613 
	C183.056534,46.955574 183.023438,46.983776 183.134949,47.194550 
	C183.528763,47.583630 183.811035,47.761932 184.093323,47.940235 
	C184.093323,47.940235 184.032364,47.899353 184.087997,48.244171 
	C185.114349,49.042347 186.085068,49.495705 187.055786,49.949059 
	C187.055786,49.949059 187.010345,49.920773 187.130859,50.155006 
	C187.541016,50.561703 187.830673,50.734165 188.120331,50.906624 
	C188.120331,50.906624 188.018494,50.976177 188.141937,51.172623 
	C188.558746,51.537106 188.852112,51.705143 189.145493,51.873177 
	C189.145493,51.873177 189.172104,51.860374 189.115356,52.143295 
	C189.039810,52.623016 189.020981,52.819817 188.995575,53.385933 
	C187.721756,55.984264 186.454544,58.213276 185.187332,60.442287 
	C186.850128,62.913063 187.782822,65.518311 187.934433,68.168243 
	C188.434708,76.913307 188.753311,85.672882 188.895660,94.430893 
	C188.924820,96.225182 187.882309,98.035164 187.343460,99.840805 
	C186.380463,103.067673 184.256119,106.560089 184.902069,109.426651 
	C185.292969,111.161324 189.981567,111.929222 192.742676,113.123573 
	C192.889816,113.187210 193.068832,113.177109 193.233032,113.201340 
	C193.029755,113.678192 192.826477,114.155052 192.134308,114.984406 
	C191.183350,116.397293 190.721298,117.457695 190.259232,118.518097 
	C189.471420,119.938461 188.683594,121.358818 187.303864,123.031631 
	C186.150177,124.220474 185.588394,125.156868 185.026611,126.093262 
	C184.427368,126.564369 183.828125,127.035469 182.883392,127.888885 
	C182.280563,128.498871 182.123108,128.782120 182.065552,129.120926 
	C182.065552,129.120926 182.122086,129.091324 182.135834,129.120361 
z"/>
<path fill="#62B0F5" opacity="1.000000" stroke="none" 
	d="
M171.032379,42.582985 
	C170.870605,42.885460 170.337082,42.936890 168.959503,42.995895 
	C165.745255,43.006519 163.375076,43.009563 160.591156,43.008533 
	C152.648376,43.453941 151.791901,44.118134 150.977585,51.613346 
	C150.725586,53.932770 151.575348,56.350658 151.551193,58.719696 
	C151.438110,69.804039 151.166153,80.886665 151.014969,91.970772 
	C150.955719,96.312988 153.827835,100.658134 150.542557,105.002304 
	C145.059357,104.002052 140.030548,103.000420 135.081146,101.637192 
	C137.040207,101.252983 138.920883,101.260788 140.799179,101.197289 
	C142.095428,101.153465 143.388351,101.011032 144.682755,100.912674 
	C144.002808,99.956032 143.192596,99.064697 142.672821,98.027763 
	C141.849716,96.385696 140.947235,94.700256 140.597763,92.930580 
	C140.323883,91.543762 140.944489,90.004410 140.982361,88.528069 
	C141.258331,77.775414 141.503235,67.021828 141.695679,56.267426 
	C141.708588,55.545769 141.140488,54.831676 140.967682,54.085121 
	C140.566360,52.351151 140.241531,50.599472 139.885712,48.854969 
	C139.885712,48.854969 139.944031,48.856621 140.293396,48.903107 
	C141.405243,48.234356 142.167725,47.519119 142.930206,46.803886 
	C151.449905,40.825134 161.055847,41.582108 171.032379,42.582985 
z"/>
<path fill="#8992F0" opacity="1.000000" stroke="none" 
	d="
M94.913483,151.078201 
	C91.358086,148.665848 87.802689,146.253510 84.102478,143.131409 
	C84.620613,138.892868 85.489777,135.387024 85.885216,131.828522 
	C86.240334,128.632751 86.134323,125.378876 86.118576,122.151184 
	C86.107788,119.942413 86.081055,117.706879 85.742920,115.532845 
	C85.235092,112.267715 83.710915,108.992760 83.940224,105.817390 
	C84.359802,100.006973 85.745514,94.266319 86.695938,88.160927 
	C88.325325,84.523201 89.987106,81.221130 91.648880,77.919052 
	C93.179192,80.247498 93.541412,81.839020 93.824623,83.444473 
	C95.209267,91.293732 96.572853,99.146690 97.572716,107.010635 
	C93.843750,109.543915 91.817307,112.267960 94.078033,116.822754 
	C95.275902,119.236145 95.922668,122.193939 95.893051,124.895836 
	C95.797340,133.625824 95.272781,142.351105 94.913483,151.078201 
z"/>
<path fill="#41C8F6" opacity="1.000000" stroke="none" 
	d="
M193.228668,113.187317 
	C193.068832,113.177109 192.889816,113.187210 192.742676,113.123573 
	C189.981567,111.929222 185.292969,111.161324 184.902069,109.426651 
	C184.256119,106.560089 186.380463,103.067673 187.343460,99.840805 
	C187.882309,98.035164 188.924820,96.225182 188.895660,94.430893 
	C188.753311,85.672882 188.434708,76.913307 187.934433,68.168243 
	C187.782822,65.518311 186.850128,62.913063 185.187332,60.442287 
	C186.454544,58.213276 187.721756,55.984264 189.286438,53.349434 
	C189.772781,52.893429 189.961655,52.843239 190.150528,52.793053 
	C190.150528,52.793053 190.126038,52.817490 190.200882,53.086075 
	C190.566666,53.523033 190.857620,53.691402 191.148560,53.859772 
	C191.148560,53.859772 191.089767,54.006351 191.196335,54.193211 
	C191.615005,54.551712 191.927094,54.723354 192.239197,54.894997 
	C192.521606,55.026211 192.735428,55.229549 192.974579,56.081528 
	C194.442795,58.762711 195.817093,60.867386 197.191406,62.972061 
	C197.191406,62.972057 197.318970,63.250568 197.219559,63.823227 
	C198.290665,67.615112 199.461197,70.834335 200.631729,74.053558 
	C200.733887,74.486443 200.836044,74.919327 200.723190,75.845673 
	C200.697617,76.899422 200.887039,77.459702 201.076462,78.019981 
	C201.103333,79.077202 201.130203,80.134415 200.892258,81.729996 
	C200.751068,82.843529 200.874680,83.418694 200.998291,83.993858 
	C200.974655,85.056671 200.951019,86.119476 200.512115,87.677208 
	C200.015884,90.108879 199.934937,92.045631 199.854004,93.982384 
	C199.748932,94.830772 199.643875,95.679153 199.057709,96.953476 
	C198.352249,98.912514 198.127884,100.445618 197.903534,101.978722 
	C197.797958,102.532524 197.692383,103.086327 197.065308,103.976059 
	C195.699936,106.207390 194.856064,108.102791 193.749878,110.224991 
	C193.404572,111.352608 193.321594,112.253418 193.238617,113.154228 
	C193.238602,113.154228 193.224335,113.173294 193.228668,113.187317 
z"/>
<path fill="#9987F1" opacity="1.000000" stroke="none" 
	d="
M58.857536,56.862259 
	C62.929882,53.140556 67.002228,49.418854 71.614838,46.051872 
	C72.436829,48.506878 72.884613,50.600128 72.973885,52.708561 
	C73.659294,68.897087 71.763268,85.198692 75.138931,101.471741 
	C75.148315,101.673882 74.927132,102.012711 74.717865,102.166199 
	C74.372063,102.631676 74.235527,102.943665 74.110199,103.463676 
	C74.121407,103.671692 73.893860,104.020714 73.691483,104.170151 
	C73.354065,104.621338 73.219025,104.923088 72.857178,105.510345 
	C71.070175,106.155876 69.509956,106.515884 67.526947,106.929688 
	C65.402695,106.934830 63.701244,106.886169 62.002289,106.419144 
	C62.099903,96.465965 62.174164,86.930847 62.318321,77.396774 
	C62.335068,76.289108 62.734680,75.186394 62.964249,74.082939 
	C63.965408,69.270706 65.061035,64.475662 65.937111,59.640812 
	C66.444878,56.838562 65.070808,55.589928 62.226643,56.132736 
	C61.098297,56.348083 59.980267,56.617474 58.857536,56.862259 
z"/>
<path fill="#928CF2" opacity="1.000000" stroke="none" 
	d="
M75.129547,101.269600 
	C71.763268,85.198692 73.659294,68.897087 72.973885,52.708561 
	C72.884613,50.600128 72.436829,48.506878 71.966187,45.980923 
	C72.921776,45.022537 74.066284,44.489819 75.894531,43.965012 
	C77.393143,43.629616 78.207993,43.286316 79.022850,42.943016 
	C79.369301,42.882389 79.715744,42.821762 80.753220,42.888660 
	C82.287926,44.094349 83.805305,45.134243 83.869072,46.256714 
	C84.396217,55.535801 84.997993,64.837494 84.800468,74.115814 
	C84.734520,77.213676 83.689133,80.248238 84.959442,83.593842 
	C81.586319,89.690010 78.357933,95.479805 75.129547,101.269600 
z"/>
<path fill="#6BAAF4" opacity="1.000000" stroke="none" 
	d="
M134.995056,162.015945 
	C134.995056,162.015945 134.689774,162.140121 134.247131,162.172394 
	C133.541397,162.457428 133.278336,162.710175 133.015259,162.962936 
	C133.015259,162.962936 132.669266,163.112488 132.052567,163.078949 
	C129.390381,162.633240 127.344910,162.221039 125.399643,161.829056 
	C126.855362,159.812241 128.479065,158.604935 128.480316,157.395935 
	C128.490189,147.802338 128.082047,138.208649 128.064087,128.614502 
	C128.059555,126.190437 128.998581,123.764618 129.528702,121.221184 
	C130.010284,118.157303 130.495361,115.071068 130.981049,111.679764 
	C130.974228,110.967590 130.966812,110.560478 131.362762,110.227341 
	C134.502533,110.510406 137.238907,110.719513 139.972748,111.335670 
	C139.646790,119.576805 139.361313,127.412743 138.974945,135.243713 
	C138.870453,137.361801 138.939377,139.686188 138.088333,141.527451 
	C136.453842,145.063782 136.685730,147.542572 140.998596,148.810242 
	C139.066483,152.763565 139.772385,155.847260 143.111862,158.194107 
	C142.658188,158.481018 142.204498,158.767929 141.150040,159.064301 
	C140.042694,159.406616 139.536148,159.739456 139.029587,160.072311 
	C139.029587,160.072311 139.002029,160.004120 138.718887,160.037659 
	C137.948715,160.406891 137.461685,160.742554 136.974655,161.078232 
	C136.974655,161.078232 136.704605,161.189590 136.268341,161.203125 
	C135.553085,161.483078 135.274063,161.749512 134.995056,162.015945 
z"/>
<path fill="#72A4F4" opacity="1.000000" stroke="none" 
	d="
M130.980453,111.984833 
	C130.495361,115.071068 130.010284,118.157303 129.528702,121.221184 
	C128.998581,123.764618 128.059555,126.190437 128.064087,128.614502 
	C128.082047,138.208649 128.490189,147.802338 128.480316,157.395935 
	C128.479065,158.604935 126.855362,159.812241 125.399643,161.829056 
	C127.344910,162.221039 129.390381,162.633240 131.864105,163.080994 
	C130.884399,163.787750 129.476456,164.458923 127.268478,165.091888 
	C124.960831,165.047409 123.453217,165.041122 121.945595,165.034836 
	C121.945595,165.034836 121.998428,165.003448 121.823967,164.777344 
	C121.074783,164.386566 120.500061,164.221924 119.925339,164.057281 
	C119.925339,164.057281 120.005920,164.047729 119.940201,163.720871 
	C119.307877,160.629028 114.331390,161.170807 115.524490,156.572525 
	C116.861435,151.419876 116.751427,145.899963 117.383858,140.553223 
	C117.756233,137.404984 117.725975,134.705505 114.119141,133.200272 
	C113.264923,132.843781 113.069397,130.908890 112.587173,129.700775 
	C112.603462,129.701477 112.628235,129.683655 113.030106,129.771759 
	C119.470558,129.240433 118.071922,124.274277 118.972198,120.302765 
	C119.990448,118.700851 120.890564,117.378853 122.066467,115.884727 
	C122.517860,115.325958 122.693459,114.939331 122.949150,114.339462 
	C123.299644,113.762016 123.570045,113.397797 124.090485,112.902634 
	C124.510857,112.446709 124.681198,112.121742 124.904518,111.805695 
	C124.957497,111.814606 124.855995,111.818840 125.292023,111.879875 
	C127.478844,111.955551 129.229645,111.970192 130.980453,111.984833 
z"/>
<path fill="#64AFF4" opacity="1.000000" stroke="none" 
	d="
M143.392365,158.153778 
	C139.772385,155.847260 139.066483,152.763565 140.998596,148.810242 
	C136.685730,147.542572 136.453842,145.063782 138.088333,141.527451 
	C138.939377,139.686188 138.870453,137.361801 138.974945,135.243713 
	C139.361313,127.412743 139.646790,119.576805 140.212326,110.976196 
	C148.279800,110.169434 156.107681,110.222771 163.928314,110.009491 
	C165.479065,109.967201 167.001923,108.901733 168.537659,108.308105 
	C168.663681,108.901070 168.789719,109.494041 168.526062,110.542160 
	C166.426971,111.010696 164.717606,111.024094 162.563019,111.027611 
	C160.119873,111.022827 158.014343,110.625809 156.148590,111.124985 
	C153.171875,111.921402 149.977524,112.800522 150.023239,117.057434 
	C150.101013,124.299995 150.055344,131.545517 149.932358,138.787613 
	C149.893753,141.061584 149.440598,143.328522 149.112900,146.152542 
	C151.967285,145.372040 153.746429,144.885529 155.525589,144.399033 
	C155.758575,144.827942 155.991547,145.256851 156.224533,145.685760 
	C154.961746,146.586899 153.683990,147.467941 152.439606,148.393814 
	C150.473190,149.856903 147.092392,150.211761 147.705872,154.117172 
	C146.631393,155.263306 145.865509,156.262650 145.099640,157.261978 
	C144.624054,157.545792 144.148468,157.829620 143.392365,158.153778 
z"/>
<path fill="#75A3F3" opacity="1.000000" stroke="none" 
	d="
M123.278046,108.138412 
	C115.001396,108.868141 115.000603,108.868141 115.000183,100.063942 
	C114.999588,87.492744 115.002769,74.921539 114.998367,62.350338 
	C114.997475,59.811729 114.733498,57.121368 118.882812,56.938477 
	C121.293381,59.202133 123.269707,61.503479 125.614334,64.208450 
	C126.092186,66.227203 126.359566,67.849701 126.284424,69.456184 
	C125.929306,77.049446 125.505486,84.639816 125.051117,92.227921 
	C124.898682,94.773827 124.583359,97.309990 124.342476,99.850601 
	C123.792084,100.019249 123.241692,100.187889 122.691299,100.356529 
	C125.461342,102.841553 128.231384,105.326584 130.573700,107.880310 
	C127.856667,108.012154 125.567360,108.075287 123.278046,108.138412 
z"/>
<path fill="#A084F1" opacity="1.000000" stroke="none" 
	d="
M58.870766,56.879921 
	C59.980267,56.617474 61.098297,56.348083 62.226643,56.132736 
	C65.070808,55.589928 66.444878,56.838562 65.937111,59.640812 
	C65.061035,64.475662 63.965408,69.270706 62.964249,74.082939 
	C62.734680,75.186394 62.335068,76.289108 62.318321,77.396774 
	C62.174164,86.930847 62.099903,96.465965 61.591072,106.492691 
	C59.788887,107.044281 58.400417,107.103973 56.738747,107.071815 
	C56.283501,106.918465 56.101456,106.856972 55.919411,106.795471 
	C51.933865,93.198204 49.714741,79.514420 53.964691,65.531738 
	C54.199245,64.760033 54.672478,64.060883 55.688446,63.090462 
	C57.201458,60.875877 58.060635,58.898788 58.919815,56.921703 
	C58.919815,56.921703 58.883987,56.897579 58.870766,56.879921 
z"/>
<path fill="#69ABF4" opacity="1.000000" stroke="none" 
	d="
M139.581604,48.873863 
	C140.241531,50.599472 140.566360,52.351151 140.967682,54.085121 
	C141.140488,54.831676 141.708588,55.545769 141.695679,56.267426 
	C141.503235,67.021828 141.258331,77.775414 140.982361,88.528069 
	C140.944489,90.004410 140.323883,91.543762 140.597763,92.930580 
	C140.947235,94.700256 141.849716,96.385696 142.672821,98.027763 
	C143.192596,99.064697 144.002808,99.956032 144.682755,100.912674 
	C143.388351,101.011032 142.095428,101.153465 140.799179,101.197289 
	C138.920883,101.260788 137.040207,101.252983 134.728424,101.629669 
	C133.149216,98.761696 131.571030,95.613304 131.003494,92.292213 
	C130.611908,90.000732 131.955826,87.467392 131.934662,85.047302 
	C131.878357,78.611656 131.680756,72.164375 131.159988,65.752525 
	C130.972275,63.441372 129.703384,61.218037 128.927887,58.954624 
	C128.962082,58.640404 129.087982,58.368668 129.877441,58.015865 
	C131.302536,56.606453 132.155762,55.320591 133.009003,54.034729 
	C133.195770,53.761829 133.382553,53.488930 134.094284,53.081409 
	C135.051239,52.589432 135.483215,52.232075 135.915192,51.874718 
	C135.915192,51.874714 135.983948,51.899601 136.198700,51.787930 
	C136.573456,51.349178 136.733444,51.022102 136.893433,50.695026 
	C137.688110,50.094273 138.482803,49.493515 139.581604,48.873863 
z"/>
<path fill="#5BB6F5" opacity="1.000000" stroke="none" 
	d="
M148.014465,153.970367 
	C147.092392,150.211761 150.473190,149.856903 152.439606,148.393814 
	C153.683990,147.467941 154.961746,146.586899 156.224533,145.685760 
	C155.991547,145.256851 155.758575,144.827942 155.525589,144.399033 
	C153.746429,144.885529 151.967285,145.372040 149.112900,146.152542 
	C149.440598,143.328522 149.893753,141.061584 149.932358,138.787613 
	C150.055344,131.545517 150.101013,124.299995 150.023239,117.057434 
	C149.977524,112.800522 153.171875,111.921402 156.148590,111.124985 
	C158.014343,110.625809 160.119873,111.022827 162.515747,111.376648 
	C161.553116,114.327278 158.414688,116.640945 161.738739,119.961723 
	C162.077118,120.299751 161.871750,121.238670 161.828522,121.892776 
	C161.566910,125.850563 161.099075,129.803833 161.037704,133.763840 
	C160.912247,141.858871 161.000290,141.860229 169.253052,142.085480 
	C165.534561,144.730148 161.816086,147.374817 157.467896,150.122986 
	C156.569244,150.507172 156.300339,150.787888 156.031418,151.068588 
	C156.031418,151.068588 156.016449,150.997437 155.651398,151.007736 
	C153.868576,152.030060 152.450790,153.042084 151.033005,154.054108 
	C151.033005,154.054108 151.010757,153.995255 150.651794,154.000183 
	C149.533371,153.993546 148.773911,153.981964 148.014465,153.970367 
z"/>
<path fill="#8F8DEF" opacity="1.000000" stroke="none" 
	d="
M86.728325,88.496574 
	C85.745514,94.266319 84.359802,100.006973 83.940224,105.817390 
	C83.710915,108.992760 85.235092,112.267715 85.742920,115.532845 
	C86.081055,117.706879 86.107788,119.942413 86.118576,122.151184 
	C86.134323,125.378876 86.240334,128.632751 85.885216,131.828522 
	C85.489777,135.387024 84.620613,138.892868 83.922066,142.854889 
	C80.000252,139.758118 76.114052,136.228134 72.295471,132.110687 
	C73.547203,129.537598 75.677849,127.580284 75.738281,125.561020 
	C75.920952,119.457344 75.300179,113.329620 75.334747,107.119003 
	C77.125404,104.702553 78.616501,102.403641 80.012672,100.048454 
	C82.283882,96.217186 84.492996,92.349113 86.728325,88.496574 
z"/>
<path fill="#7F91E8" opacity="1.000000" stroke="none" 
	d="
M105.874039,45.687607 
	C102.543106,45.969772 101.641167,47.517517 102.467880,51.056259 
	C104.071968,57.922680 104.389954,64.802834 100.772018,71.330444 
	C100.277405,72.222832 100.271324,73.518745 100.380997,74.592911 
	C101.572899,86.266319 102.846672,97.931328 104.064209,109.602173 
	C104.337135,112.218399 104.478317,114.848373 104.171745,117.468719 
	C100.776421,102.973465 97.889503,88.481514 94.841080,73.628288 
	C94.466545,71.500267 94.014832,69.723450 94.088852,67.968811 
	C94.256737,63.988514 94.535240,60.000034 95.044266,56.050385 
	C95.615959,51.614513 96.490913,47.217728 97.233932,42.803940 
	C100.030518,43.674232 102.827095,44.544521 105.874039,45.687607 
z"/>
<path fill="#8298F2" opacity="1.000000" stroke="none" 
	d="
M94.926315,151.068802 
	C95.272781,142.351105 95.797340,133.625824 95.893051,124.895836 
	C95.922668,122.193939 95.275902,119.236145 94.078033,116.822754 
	C91.817307,112.267960 93.843750,109.543915 97.671806,107.432587 
	C100.132828,116.813782 102.123596,125.785316 104.129494,135.111786 
	C106.662933,138.963135 110.840843,141.936676 107.168121,147.203262 
	C106.626236,147.980301 108.063011,149.939941 108.104881,151.366501 
	C108.171501,153.636475 107.834808,155.918289 107.668701,158.195099 
	C105.900604,157.387405 104.132515,156.579712 102.006561,155.226669 
	C101.033272,154.478531 100.417839,154.275742 99.802414,154.072952 
	C99.299210,153.891891 98.795998,153.710815 97.994652,153.054901 
	C97.355293,152.417786 97.014076,152.255539 96.672859,152.093292 
	C96.672859,152.093292 96.310822,152.089676 96.025948,151.811661 
	C95.529579,151.283173 95.264420,151.119644 94.945602,151.043076 
	C94.945602,151.043076 94.939140,151.059402 94.926315,151.068802 
z"/>
<path fill="#6EA8F1" opacity="1.000000" stroke="none" 
	d="
M128.663147,59.142342 
	C129.703384,61.218037 130.972275,63.441372 131.159988,65.752525 
	C131.680756,72.164375 131.878357,78.611656 131.934662,85.047302 
	C131.955826,87.467392 130.611908,90.000732 131.003494,92.292213 
	C131.571030,95.613304 133.149216,98.761696 134.649017,101.991272 
	C140.030548,103.000420 145.059357,104.002052 150.992813,105.003517 
	C154.596878,105.002945 157.296310,105.002541 160.394424,105.006104 
	C162.865936,105.309624 164.938736,105.609192 167.011551,105.908760 
	C167.269363,106.123207 167.527191,106.337662 167.427658,106.771393 
	C155.047348,107.264313 143.024399,107.537956 131.001434,107.811607 
	C128.231384,105.326584 125.461342,102.841553 122.691299,100.356529 
	C123.241692,100.187889 123.792084,100.019249 124.342476,99.850601 
	C124.583359,97.309990 124.898682,94.773827 125.051117,92.227921 
	C125.505486,84.639816 125.929306,77.049446 126.284424,69.456184 
	C126.359566,67.849701 126.092186,66.227203 125.950409,64.214905 
	C126.744926,62.321835 127.571663,60.825947 128.663147,59.142342 
z"/>
<path fill="#8B92F1" opacity="1.000000" stroke="none" 
	d="
M96.874252,42.571869 
	C96.490913,47.217728 95.615959,51.614513 95.044266,56.050385 
	C94.535240,60.000034 94.256737,63.988514 94.088852,67.968811 
	C94.014832,69.723450 94.466545,71.500267 94.449677,73.621826 
	C90.767471,74.117607 88.673080,75.867989 87.559654,79.151909 
	C87.056061,80.637199 85.941536,81.915344 85.104179,83.287468 
	C83.689133,80.248238 84.734520,77.213676 84.800468,74.115814 
	C84.997993,64.837494 84.396217,55.535801 83.869072,46.256714 
	C83.805305,45.134243 82.287926,44.094349 81.013573,42.938126 
	C85.893448,42.686646 91.204010,42.513222 96.874252,42.571869 
z"/>
<path fill="#54BBF4" opacity="1.000000" stroke="none" 
	d="
M169.515640,141.925232 
	C161.000290,141.860229 160.912247,141.858871 161.037704,133.763840 
	C161.099075,129.803833 161.566910,125.850563 161.828522,121.892776 
	C161.871750,121.238670 162.077118,120.299751 161.738739,119.961723 
	C158.414688,116.640945 161.553116,114.327278 162.960938,111.386520 
	C164.717606,111.024094 166.426971,111.010696 168.563263,110.995926 
	C172.790375,116.405800 171.639740,122.497551 170.057922,127.937149 
	C168.784653,132.315689 169.214050,135.180099 172.838440,138.015411 
	C172.063934,139.317352 170.921082,140.541153 169.515640,141.925232 
z"/>
<path fill="#789CEA" opacity="1.000000" stroke="none" 
	d="
M107.902321,158.458923 
	C107.834808,155.918289 108.171501,153.636475 108.104881,151.366501 
	C108.063011,149.939941 106.626236,147.980301 107.168121,147.203262 
	C110.840843,141.936676 106.662933,138.963135 104.495163,135.073456 
	C108.497124,134.689789 111.007408,132.929260 112.570877,129.700058 
	C113.069397,130.908890 113.264923,132.843781 114.119141,133.200272 
	C117.725975,134.705505 117.756233,137.404984 117.383858,140.553223 
	C116.751427,145.899963 116.861435,151.419876 115.524490,156.572525 
	C114.331390,161.170807 119.307877,160.629028 119.908707,163.746460 
	C116.007278,162.306854 112.071609,160.514801 107.902321,158.458923 
z"/>
<path fill="#988AEE" opacity="1.000000" stroke="none" 
	d="
M74.992561,107.211273 
	C75.300179,113.329620 75.920952,119.457344 75.738281,125.561020 
	C75.677849,127.580284 73.547203,129.537598 72.147408,131.813232 
	C67.236145,125.576103 62.540565,119.048943 57.670624,112.278198 
	C57.455841,111.871475 57.415417,111.708328 57.456749,111.093521 
	C57.658363,110.303459 57.778217,109.965057 58.373734,109.738960 
	C62.823818,109.923462 66.801941,110.105751 70.769463,109.972473 
	C71.537994,109.946655 72.265152,108.688896 73.136147,107.715790 
	C73.838120,107.358551 74.415337,107.284912 74.992561,107.211273 
z"/>
<path fill="#62CCEF" opacity="1.000000" stroke="none" 
	d="
M200.695953,73.670547 
	C199.461197,70.834335 198.290665,67.615112 197.200638,63.975220 
	C198.440811,66.798882 199.600494,70.043213 200.695953,73.670547 
z"/>
<path fill="#62CCEF" opacity="1.000000" stroke="none" 
	d="
M194.012207,109.998192 
	C194.856064,108.102791 195.699936,106.207390 196.884567,104.196907 
	C196.676941,105.896294 196.128525,107.710770 195.069763,109.769836 
	C194.377014,110.009026 194.194611,110.003609 194.012207,109.998192 
z"/>
<path fill="#62CCEF" opacity="1.000000" stroke="none" 
	d="
M197.180023,62.609470 
	C195.817093,60.867386 194.442795,58.762711 193.051041,56.292538 
	C194.411942,58.033653 195.790283,60.140266 197.180023,62.609470 
z"/>
<path fill="#62CCEF" opacity="1.000000" stroke="none" 
	d="
M200.053223,93.651703 
	C199.934937,92.045631 200.015884,90.108879 200.426849,88.067429 
	C200.588730,89.748825 200.420578,91.534927 200.053223,93.651703 
z"/>
<path fill="#9987F1" opacity="1.000000" stroke="none" 
	d="
M58.615620,57.085136 
	C58.060635,58.898788 57.201458,60.875877 55.945660,62.854294 
	C56.469833,60.986603 57.390629,59.117584 58.615620,57.085136 
z"/>
<path fill="#6BAAF4" opacity="1.000000" stroke="none" 
	d="
M147.705872,154.117172 
	C148.773911,153.981964 149.533371,153.993546 150.673035,154.023743 
	C149.294724,155.063278 147.536209,156.084198 145.438660,157.183563 
	C145.865509,156.262650 146.631393,155.263306 147.705872,154.117172 
z"/>
<path fill="#64AFF4" opacity="1.000000" stroke="none" 
	d="
M151.366028,154.015625 
	C152.450790,153.042084 153.868576,152.030060 155.673492,151.036667 
	C154.606781,152.029251 153.152908,153.003204 151.366028,154.015625 
z"/>
<path fill="#62CCEF" opacity="1.000000" stroke="none" 
	d="
M198.168518,101.721191 
	C198.127884,100.445618 198.352249,98.912514 198.870453,97.216682 
	C198.920685,98.523857 198.677094,99.993752 198.168518,101.721191 
z"/>
<path fill="#75A3F3" opacity="1.000000" stroke="none" 
	d="
M132.712006,54.166359 
	C132.155762,55.320591 131.302536,56.606453 130.064636,57.886009 
	C130.591644,56.685802 131.503326,55.491898 132.712006,54.166359 
z"/>
<path fill="#66CAEE" opacity="1.000000" stroke="none" 
	d="
M185.364441,126.039337 
	C185.588394,125.156868 186.150177,124.220474 187.064850,123.225388 
	C186.845932,124.106262 186.274094,125.045837 185.364441,126.039337 
z"/>
<path fill="#69ABF4" opacity="1.000000" stroke="none" 
	d="
M142.615005,46.869392 
	C142.167725,47.519119 141.405243,48.234356 140.272034,48.922951 
	C140.700790,48.242504 141.500305,47.588703 142.615005,46.869392 
z"/>
<path fill="#4FC0F6" opacity="1.000000" stroke="none" 
	d="
M186.924042,49.660259 
	C186.085068,49.495705 185.114349,49.042347 184.122162,48.230747 
	C184.997894,48.372158 185.895096,48.871811 186.924042,49.660259 
z"/>
<path fill="#66CAEE" opacity="1.000000" stroke="none" 
	d="
M193.749878,110.224991 
	C194.194611,110.003609 194.377014,110.009026 194.833176,110.028702 
	C194.664368,110.973877 194.221802,111.904800 193.508926,112.994980 
	C193.321594,112.253418 193.404572,111.352608 193.749878,110.224991 
z"/>
<path fill="#789CEA" opacity="1.000000" stroke="none" 
	d="
M122.200584,165.297760 
	C123.453217,165.041122 124.960831,165.047409 126.930779,165.089523 
	C125.747261,165.270477 124.101418,165.415588 122.200584,165.297760 
z"/>
<path fill="#62CCEF" opacity="1.000000" stroke="none" 
	d="
M201.182617,83.838829 
	C200.874680,83.418694 200.751068,82.843529 200.854431,82.125237 
	C201.176575,82.549339 201.271759,83.116570 201.182617,83.838829 
z"/>
<path fill="#62CCEF" opacity="1.000000" stroke="none" 
	d="
M201.240692,77.841629 
	C200.887039,77.459702 200.697617,76.899422 200.716644,76.180389 
	C201.085068,76.568855 201.244995,77.116066 201.240692,77.841629 
z"/>
<path fill="#66CAEE" opacity="1.000000" stroke="none" 
	d="
M190.571136,118.344818 
	C190.721298,117.457695 191.183350,116.397293 191.968018,115.185715 
	C191.821411,116.080193 191.352219,117.125862 190.571136,118.344818 
z"/>
<path fill="#8B92F1" opacity="1.000000" stroke="none" 
	d="
M78.677002,42.936600 
	C78.207993,43.286316 77.393143,43.629616 76.222824,43.957970 
	C76.688637,43.605408 77.509903,43.267799 78.677002,42.936600 
z"/>
<path fill="#8992F0" opacity="1.000000" stroke="none" 
	d="
M100.007050,154.310547 
	C100.417839,154.275742 101.033272,154.478531 101.781990,154.992447 
	C101.347420,155.051758 100.779549,154.799942 100.007050,154.310547 
z"/>
<path fill="#72A4F4" opacity="1.000000" stroke="none" 
	d="
M139.339523,160.053467 
	C139.536148,159.739456 140.042694,159.406616 140.873291,159.077652 
	C140.681366,159.399231 140.165421,159.716934 139.339523,160.053467 
z"/>
<path fill="#72A4F4" opacity="1.000000" stroke="none" 
	d="
M137.280334,161.056427 
	C137.461685,160.742554 137.948715,160.406891 138.746033,160.062469 
	C138.566223,160.380707 138.076126,160.707672 137.280334,161.056427 
z"/>
<path fill="#75A3F3" opacity="1.000000" stroke="none" 
	d="
M135.616608,51.874504 
	C135.483215,52.232075 135.051239,52.589432 134.323471,52.976231 
	C134.457809,52.628544 134.887909,52.251419 135.616608,51.874504 
z"/>
<path fill="#789CEA" opacity="1.000000" stroke="none" 
	d="
M120.100800,164.304413 
	C120.500061,164.221924 121.074783,164.386566 121.819435,164.807724 
	C121.418327,164.893341 120.847298,164.722458 120.100800,164.304413 
z"/>
<path fill="#0F1017" opacity="1.000000" stroke="none" 
	d="
M55.704933,106.866119 
	C56.101456,106.856972 56.283501,106.918465 56.730827,107.316086 
	C56.996113,107.652206 56.945404,108.138367 56.624672,108.099762 
	C55.876270,108.023766 55.448597,107.986374 55.020924,107.948975 
	C55.020924,107.948975 54.985428,107.483170 55.016041,107.251839 
	C55.046654,107.020508 55.490452,106.936775 55.704933,106.866119 
z"/>
<path fill="#62CCEF" opacity="1.000000" stroke="none" 
	d="
M191.070282,53.613857 
	C190.857620,53.691402 190.566666,53.523033 190.204346,53.103027 
	C190.419296,53.023571 190.705658,53.195755 191.070282,53.613857 
z"/>
<path fill="#62CCEF" opacity="1.000000" stroke="none" 
	d="
M192.128525,54.650215 
	C191.927094,54.723354 191.615005,54.551712 191.216293,54.118469 
	C191.425735,54.039722 191.721802,54.222576 192.128525,54.650215 
z"/>
<path fill="#62CCEF" opacity="1.000000" stroke="none" 
	d="
M189.059479,51.626976 
	C188.852112,51.705143 188.558746,51.537106 188.177826,51.122482 
	C188.384674,51.044189 188.679062,51.212486 189.059479,51.626976 
z"/>
<path fill="#4FC0F6" opacity="1.000000" stroke="none" 
	d="
M184.012573,47.688362 
	C183.811035,47.761932 183.528763,47.583630 183.133789,47.176590 
	C183.324677,47.110729 183.628250,47.273609 184.012573,47.688362 
z"/>
<path fill="#62CCEF" opacity="1.000000" stroke="none" 
	d="
M190.066605,52.570141 
	C189.961655,52.843239 189.772781,52.893429 189.293030,52.980122 
	C189.020981,52.819817 189.039810,52.623016 189.128448,52.136429 
	C189.532471,51.899567 189.793945,52.066425 190.066605,52.570141 
z"/>
<path fill="#75A3F3" opacity="1.000000" stroke="none" 
	d="
M136.651505,50.834259 
	C136.733444,51.022102 136.573456,51.349178 136.165115,51.802357 
	C136.081039,51.610134 136.245316,51.291813 136.651505,50.834259 
z"/>
<path fill="#72A4F4" opacity="1.000000" stroke="none" 
	d="
M133.282501,162.897064 
	C133.278336,162.710175 133.541397,162.457428 134.083618,162.152069 
	C134.091751,162.343369 133.820740,162.587296 133.282501,162.897064 
z"/>
<path fill="#72A4F4" opacity="1.000000" stroke="none" 
	d="
M135.277313,161.946350 
	C135.274063,161.749512 135.553085,161.483078 136.127899,161.163025 
	C136.135681,161.365189 135.847641,161.620987 135.277313,161.946350 
z"/>
<path fill="#62CCEF" opacity="1.000000" stroke="none" 
	d="
M188.028854,50.663574 
	C187.830673,50.734165 187.541016,50.561703 187.156555,50.147530 
	C187.353622,50.077381 187.645508,50.248951 188.028854,50.663574 
z"/>
<path fill="#8992F0" opacity="1.000000" stroke="none" 
	d="
M96.841667,152.318314 
	C97.014076,152.255539 97.355293,152.417786 97.838600,152.830582 
	C97.657288,152.901855 97.333885,152.722595 96.841667,152.318314 
z"/>
<path fill="#8992F0" opacity="1.000000" stroke="none" 
	d="
M95.045181,151.265228 
	C95.264420,151.119644 95.529579,151.283173 95.861160,151.736725 
	C95.638687,151.906815 95.359863,151.756012 95.045181,151.265228 
z"/>
<path fill="#64AFF4" opacity="1.000000" stroke="none" 
	d="
M156.312958,150.991638 
	C156.300339,150.787888 156.569244,150.507172 157.136475,150.169769 
	C157.154694,150.380295 156.874588,150.647491 156.312958,150.991638 
z"/>
<path fill="#4FC0F6" opacity="1.000000" stroke="none" 
	d="
M182.313004,129.028809 
	C182.123108,128.782120 182.280563,128.498871 182.747772,128.142685 
	C182.825256,128.321686 182.692856,128.629181 182.313004,129.028809 
z"/>
<path fill="#092A2F" opacity="1.000000" stroke="none" 
	d="
M160.004807,209.948669 
	C155.960846,207.167862 159.285522,205.789658 161.130081,203.736557 
	C163.676682,205.583435 166.390121,207.001938 162.207764,210.032623 
	C161.184189,209.973267 160.594498,209.960983 160.004807,209.948669 
z"/>
<path fill="#2CBDE2" opacity="1.000000" stroke="none" 
	d="
M160.050964,210.267975 
	C160.594498,209.960983 161.184189,209.973267 161.987518,210.213547 
	C161.499802,210.490112 160.798462,210.538681 160.050964,210.267975 
z"/>
<path fill="#03070D" opacity="1.000000" stroke="none" 
	d="
M96.438492,204.886505 
	C96.867226,205.650620 97.258675,206.235107 97.104668,206.564774 
	C96.389893,208.094772 95.523895,209.554123 94.712044,211.038773 
	C93.840439,209.858124 92.366310,208.746140 92.222343,207.482590 
	C91.920219,204.830780 93.260147,203.413437 96.438492,204.886505 
z"/>
<path fill="#030910" opacity="1.000000" stroke="none" 
	d="
M78.963776,207.954620 
	C77.579758,209.195053 76.277168,210.047913 74.974579,210.900787 
	C74.356644,209.687943 73.297600,208.488846 73.259323,207.257996 
	C73.228302,206.260284 74.424225,205.224442 75.075958,204.205521 
	C76.399048,205.326019 77.722130,206.446533 78.963776,207.954620 
z"/>
<path fill="#E3F4FA" opacity="1.000000" stroke="none" 
	d="
M55.043884,108.287491 
	C55.448597,107.986374 55.876270,108.023766 56.671562,108.327492 
	C57.325478,108.938103 57.611774,109.282379 57.898071,109.626663 
	C57.778217,109.965057 57.658363,110.303459 57.375496,110.854858 
	C56.497276,110.253922 55.782059,109.439964 55.043884,108.287491 
z"/>
<path fill="#0F1017" opacity="1.000000" stroke="none" 
	d="
M75.334747,107.119003 
	C74.415337,107.284912 73.838120,107.358551 72.741684,107.711395 
	C70.798225,107.619034 69.373985,107.247467 67.949745,106.875893 
	C69.509956,106.515884 71.070175,106.155876 73.107010,105.397644 
	C73.687042,104.673187 73.790451,104.346947 73.893860,104.020714 
	C73.893860,104.020714 74.121407,103.671692 74.363205,103.343430 
	C74.712379,102.681015 74.819756,102.346863 74.927132,102.012711 
	C74.927132,102.012711 75.148315,101.673882 75.138931,101.471741 
	C78.357933,95.479805 81.586319,89.690010 84.959442,83.593842 
	C85.941536,81.915344 87.056061,80.637199 87.559654,79.151909 
	C88.673080,75.867989 90.767471,74.117607 94.611183,73.983101 
	C97.889503,88.481514 100.776421,102.973465 103.967392,117.736710 
	C104.330551,118.458000 104.389671,118.907990 104.452797,120.035477 
	C104.872879,122.482315 105.288956,124.251648 105.705032,126.020981 
	C106.096245,127.654861 106.487457,129.288742 107.025261,131.534836 
	C112.628906,123.514633 117.788437,116.130074 123.113007,108.441963 
	C125.567360,108.075287 127.856667,108.012154 130.573700,107.880310 
	C143.024399,107.537956 155.047348,107.264313 167.539749,106.999023 
	C168.121399,107.343239 168.233627,107.679100 168.441742,108.161530 
	C167.001923,108.901733 165.479065,109.967201 163.928314,110.009491 
	C156.107681,110.222771 148.279800,110.169434 140.214874,110.569138 
	C137.238907,110.719513 134.502533,110.510406 130.992966,110.165054 
	C128.431854,110.625481 126.643929,111.222160 124.855995,111.818840 
	C124.855995,111.818840 124.957497,111.814606 124.606544,111.890671 
	C124.117218,112.322357 123.978836,112.677979 123.840454,113.033585 
	C123.570045,113.397797 123.299644,113.762016 122.649216,114.497810 
	C122.109688,115.265221 121.950188,115.661041 121.790680,116.056862 
	C120.890564,117.378853 119.990448,118.700851 118.656105,120.481049 
	C116.357330,123.854057 114.492783,126.768852 112.628235,129.683655 
	C112.628235,129.683655 112.603462,129.701477 112.587173,129.700775 
	C111.007408,132.929260 108.497124,134.689789 104.480042,134.718536 
	C102.123596,125.785316 100.132828,116.813782 98.042969,107.420296 
	C96.572853,99.146690 95.209267,91.293732 93.824623,83.444473 
	C93.541412,81.839020 93.179192,80.247498 91.648880,77.919052 
	C89.987106,81.221130 88.325325,84.523201 86.695938,88.160927 
	C84.492996,92.349113 82.283882,96.217186 80.012672,100.048454 
	C78.616501,102.403641 77.125404,104.702553 75.334747,107.119003 
z"/>
<path fill="#7F91E8" opacity="1.000000" stroke="none" 
	d="
M105.975647,125.889679 
	C105.288956,124.251648 104.872879,122.482315 104.592827,120.345871 
	C105.234657,121.905296 105.740456,123.831841 105.975647,125.889679 
z"/>
<path fill="#54BBF6" opacity="1.000000" stroke="none" 
	d="
M167.009140,105.554237 
	C164.938736,105.609192 162.865936,105.309624 160.397247,104.600357 
	C160.334259,98.682556 160.904282,93.176620 160.954315,87.665962 
	C161.089432,72.782578 161.003250,57.897198 161.004883,43.012608 
	C163.375076,43.009563 165.745255,43.006519 168.559875,43.009197 
	C169.336563,61.030659 169.668839,79.046394 169.647644,97.604126 
	C168.862778,99.430344 168.431396,100.714561 168.000015,101.998779 
	C167.668915,103.065758 167.337814,104.132736 167.009140,105.554237 
z"/>
<path fill="#54BBF4" opacity="1.000000" stroke="none" 
	d="
M168.365295,101.988663 
	C168.431396,100.714561 168.862778,99.430344 169.647888,98.072746 
	C171.413406,99.912064 171.729477,101.474762 168.365295,101.988663 
z"/>
<path fill="#5AB5F5" opacity="1.000000" stroke="none" 
	d="
M160.591156,43.008533 
	C161.003250,57.897198 161.089432,72.782578 160.954315,87.665962 
	C160.904282,93.176620 160.334259,98.682556 159.998566,104.596390 
	C157.296310,105.002541 154.596878,105.002945 151.447205,105.002136 
	C153.827835,100.658134 150.955719,96.312988 151.014969,91.970772 
	C151.166153,80.886665 151.438110,69.804039 151.551193,58.719696 
	C151.575348,56.350658 150.725586,53.932770 150.977585,51.613346 
	C151.791901,44.118134 152.648376,43.453941 160.591156,43.008533 
z"/>
<path fill="#060609" opacity="1.000000" stroke="none" 
	d="
M67.526947,106.929688 
	C69.373985,107.247467 70.798225,107.619034 72.616928,107.995010 
	C72.265152,108.688896 71.537994,109.946655 70.769463,109.972473 
	C66.801941,110.105751 62.823818,109.923462 58.373734,109.738960 
	C57.611774,109.282379 57.325478,108.938103 56.992294,108.366096 
	C56.945404,108.138367 56.996113,107.652206 57.004028,107.407936 
	C58.400417,107.103973 59.788887,107.044281 61.588577,106.911057 
	C63.701244,106.886169 65.402695,106.934830 67.526947,106.929688 
z"/>
<path fill="#928CF2" opacity="1.000000" stroke="none" 
	d="
M74.717865,102.166199 
	C74.819756,102.346863 74.712379,102.681015 74.351997,103.135414 
	C74.235527,102.943665 74.372063,102.631676 74.717865,102.166199 
z"/>
<path fill="#928CF2" opacity="1.000000" stroke="none" 
	d="
M73.691483,104.170151 
	C73.790451,104.346947 73.687042,104.673187 73.333809,105.112122 
	C73.219025,104.923088 73.354065,104.621338 73.691483,104.170151 
z"/>
<path fill="#789CEA" opacity="1.000000" stroke="none" 
	d="
M125.292023,111.879875 
	C126.643929,111.222160 128.431854,110.625481 130.589600,110.091080 
	C130.966812,110.560478 130.974228,110.967590 130.981049,111.679764 
	C129.229645,111.970192 127.478844,111.955551 125.292023,111.879875 
z"/>
<path fill="#789CEA" opacity="1.000000" stroke="none" 
	d="
M113.030106,129.771759 
	C114.492783,126.768852 116.357330,123.854057 118.537979,120.760971 
	C118.071922,124.274277 119.470558,129.240433 113.030106,129.771759 
z"/>
<path fill="#789CEA" opacity="1.000000" stroke="none" 
	d="
M124.090485,112.902634 
	C123.978836,112.677979 124.117218,112.322357 124.553566,111.881760 
	C124.681198,112.121742 124.510857,112.446709 124.090485,112.902634 
z"/>
<path fill="#789CEA" opacity="1.000000" stroke="none" 
	d="
M122.066475,115.884727 
	C121.950188,115.661041 122.109688,115.265221 122.569122,114.711044 
	C122.693459,114.939331 122.517860,115.325958 122.066475,115.884727 
z"/>
</svg>